<mxfile host="app.diagrams.net" modified="2020-08-21T07:17:07.100Z" agent="5.0 (Windows NT 10.0; Win64; x64) AppleWebKit/537.36 (KHTML, like Gecko) Chrome/84.0.4147.135 Safari/537.36" etag="gQEqxHhAzMDdhHf_b7gX" version="13.6.4" type="github">
  <diagram id="VVI6lwgtHgOXOwXO1aQe" name="第 1 页">
    <mxGraphModel dx="1038" dy="644" grid="1" gridSize="10" guides="1" tooltips="1" connect="1" arrows="1" fold="1" page="1" pageScale="1" pageWidth="827" pageHeight="1169" math="0" shadow="0">
      <root>
        <mxCell id="0" />
        <mxCell id="1" parent="0" />
        <object label="" id="7edy7qQrG2I-J0OHIAib-12">
          <mxCell style="edgeStyle=orthogonalEdgeStyle;rounded=0;orthogonalLoop=1;jettySize=auto;html=1;entryX=1;entryY=0.5;entryDx=0;entryDy=0;" parent="1" source="7edy7qQrG2I-J0OHIAib-1" target="7edy7qQrG2I-J0OHIAib-2" edge="1">
            <mxGeometry relative="1" as="geometry">
              <Array as="points">
                <mxPoint x="610" y="220" />
                <mxPoint x="610" y="220" />
              </Array>
            </mxGeometry>
          </mxCell>
        </object>
        <mxCell id="7edy7qQrG2I-J0OHIAib-26" value="WS Protocol" style="edgeLabel;html=1;align=center;verticalAlign=middle;resizable=0;points=[];rotation=0;" parent="7edy7qQrG2I-J0OHIAib-12" vertex="1" connectable="0">
          <mxGeometry x="0.1888" y="-1" relative="1" as="geometry">
            <mxPoint as="offset" />
          </mxGeometry>
        </mxCell>
        <mxCell id="7edy7qQrG2I-J0OHIAib-1" value="Stream Server" style="shape=parallelogram;perimeter=parallelogramPerimeter;whiteSpace=wrap;html=1;" parent="1" vertex="1">
          <mxGeometry x="670" y="190" width="130" height="60" as="geometry" />
        </mxCell>
        <mxCell id="7edy7qQrG2I-J0OHIAib-13" style="edgeStyle=orthogonalEdgeStyle;rounded=0;orthogonalLoop=1;jettySize=auto;html=1;entryX=0.603;entryY=0.007;entryDx=0;entryDy=0;entryPerimeter=0;" parent="1" source="7edy7qQrG2I-J0OHIAib-2" target="7edy7qQrG2I-J0OHIAib-1" edge="1">
          <mxGeometry relative="1" as="geometry">
            <Array as="points">
              <mxPoint x="470" y="140" />
              <mxPoint x="748" y="140" />
            </Array>
          </mxGeometry>
        </mxCell>
        <mxCell id="7edy7qQrG2I-J0OHIAib-27" value="RTP" style="edgeLabel;html=1;align=center;verticalAlign=middle;resizable=0;points=[];" parent="7edy7qQrG2I-J0OHIAib-13" vertex="1" connectable="0">
          <mxGeometry x="-0.1025" relative="1" as="geometry">
            <mxPoint as="offset" />
          </mxGeometry>
        </mxCell>
        <mxCell id="7edy7qQrG2I-J0OHIAib-15" style="edgeStyle=orthogonalEdgeStyle;rounded=0;orthogonalLoop=1;jettySize=auto;html=1;" parent="1" source="7edy7qQrG2I-J0OHIAib-2" target="7edy7qQrG2I-J0OHIAib-3" edge="1">
          <mxGeometry relative="1" as="geometry" />
        </mxCell>
        <mxCell id="7edy7qQrG2I-J0OHIAib-2" value="Web Client" style="rounded=1;whiteSpace=wrap;html=1;" parent="1" vertex="1">
          <mxGeometry x="420" y="190" width="120" height="60" as="geometry" />
        </mxCell>
        <mxCell id="7edy7qQrG2I-J0OHIAib-24" value="" style="edgeStyle=orthogonalEdgeStyle;rounded=0;orthogonalLoop=1;jettySize=auto;html=1;" parent="1" source="7edy7qQrG2I-J0OHIAib-3" target="7edy7qQrG2I-J0OHIAib-4" edge="1">
          <mxGeometry relative="1" as="geometry">
            <Array as="points">
              <mxPoint x="490" y="410" />
              <mxPoint x="490" y="410" />
            </Array>
          </mxGeometry>
        </mxCell>
        <mxCell id="7edy7qQrG2I-J0OHIAib-3" value="RTSP H.264" style="shape=parallelogram;perimeter=parallelogramPerimeter;whiteSpace=wrap;html=1;" parent="1" vertex="1">
          <mxGeometry x="420" y="310" width="120" height="60" as="geometry" />
        </mxCell>
        <mxCell id="7edy7qQrG2I-J0OHIAib-17" style="edgeStyle=orthogonalEdgeStyle;rounded=0;orthogonalLoop=1;jettySize=auto;html=1;entryX=1;entryY=0.5;entryDx=0;entryDy=0;" parent="1" source="7edy7qQrG2I-J0OHIAib-4" target="7edy7qQrG2I-J0OHIAib-6" edge="1">
          <mxGeometry relative="1" as="geometry" />
        </mxCell>
        <mxCell id="7edy7qQrG2I-J0OHIAib-4" value="Buffer Pool" style="rounded=1;whiteSpace=wrap;html=1;" parent="1" vertex="1">
          <mxGeometry x="420" y="410" width="120" height="60" as="geometry" />
        </mxCell>
        <mxCell id="7edy7qQrG2I-J0OHIAib-18" style="edgeStyle=orthogonalEdgeStyle;rounded=0;orthogonalLoop=1;jettySize=auto;html=1;entryX=0;entryY=0.5;entryDx=0;entryDy=0;" parent="1" source="7edy7qQrG2I-J0OHIAib-5" target="7edy7qQrG2I-J0OHIAib-6" edge="1">
          <mxGeometry relative="1" as="geometry" />
        </mxCell>
        <mxCell id="7edy7qQrG2I-J0OHIAib-29" value="compile" style="edgeLabel;html=1;align=center;verticalAlign=middle;resizable=0;points=[];" parent="7edy7qQrG2I-J0OHIAib-18" vertex="1" connectable="0">
          <mxGeometry x="-0.2222" y="-3" relative="1" as="geometry">
            <mxPoint as="offset" />
          </mxGeometry>
        </mxCell>
        <mxCell id="7edy7qQrG2I-J0OHIAib-5" value="FFMPEG" style="rounded=1;whiteSpace=wrap;html=1;" parent="1" vertex="1">
          <mxGeometry y="410" width="110" height="60" as="geometry" />
        </mxCell>
        <mxCell id="7edy7qQrG2I-J0OHIAib-16" style="edgeStyle=orthogonalEdgeStyle;rounded=0;orthogonalLoop=1;jettySize=auto;html=1;entryX=0;entryY=0.5;entryDx=0;entryDy=0;" parent="1" source="7edy7qQrG2I-J0OHIAib-6" target="7edy7qQrG2I-J0OHIAib-2" edge="1">
          <mxGeometry relative="1" as="geometry">
            <Array as="points">
              <mxPoint x="280" y="220" />
            </Array>
          </mxGeometry>
        </mxCell>
        <mxCell id="7edy7qQrG2I-J0OHIAib-28" value="RTP" style="edgeLabel;html=1;align=center;verticalAlign=middle;resizable=0;points=[];" parent="7edy7qQrG2I-J0OHIAib-16" vertex="1" connectable="0">
          <mxGeometry x="-0.1139" y="-4" relative="1" as="geometry">
            <mxPoint as="offset" />
          </mxGeometry>
        </mxCell>
        <mxCell id="7edy7qQrG2I-J0OHIAib-19" style="edgeStyle=orthogonalEdgeStyle;rounded=0;orthogonalLoop=1;jettySize=auto;html=1;entryX=0;entryY=0.5;entryDx=0;entryDy=0;" parent="1" source="7edy7qQrG2I-J0OHIAib-6" target="7edy7qQrG2I-J0OHIAib-7" edge="1">
          <mxGeometry relative="1" as="geometry">
            <Array as="points">
              <mxPoint x="280" y="550" />
            </Array>
          </mxGeometry>
        </mxCell>
        <mxCell id="7edy7qQrG2I-J0OHIAib-30" value="decode" style="edgeLabel;html=1;align=center;verticalAlign=middle;resizable=0;points=[];" parent="7edy7qQrG2I-J0OHIAib-19" vertex="1" connectable="0">
          <mxGeometry x="-0.1271" y="-5" relative="1" as="geometry">
            <mxPoint as="offset" />
          </mxGeometry>
        </mxCell>
        <mxCell id="7edy7qQrG2I-J0OHIAib-6" value="wasm" style="shape=process;whiteSpace=wrap;html=1;backgroundOutline=1;" parent="1" vertex="1">
          <mxGeometry x="220" y="410" width="120" height="60" as="geometry" />
        </mxCell>
        <mxCell id="7edy7qQrG2I-J0OHIAib-20" style="edgeStyle=orthogonalEdgeStyle;rounded=0;orthogonalLoop=1;jettySize=auto;html=1;entryX=0.5;entryY=0;entryDx=0;entryDy=0;" parent="1" source="7edy7qQrG2I-J0OHIAib-7" target="7edy7qQrG2I-J0OHIAib-8" edge="1">
          <mxGeometry relative="1" as="geometry" />
        </mxCell>
        <mxCell id="7edy7qQrG2I-J0OHIAib-7" value="YUV Frame" style="shape=parallelogram;perimeter=parallelogramPerimeter;whiteSpace=wrap;html=1;" parent="1" vertex="1">
          <mxGeometry x="660" y="520" width="120" height="60" as="geometry" />
        </mxCell>
        <mxCell id="7edy7qQrG2I-J0OHIAib-21" style="edgeStyle=orthogonalEdgeStyle;rounded=0;orthogonalLoop=1;jettySize=auto;html=1;" parent="1" source="7edy7qQrG2I-J0OHIAib-8" target="7edy7qQrG2I-J0OHIAib-10" edge="1">
          <mxGeometry relative="1" as="geometry" />
        </mxCell>
        <mxCell id="7edy7qQrG2I-J0OHIAib-32" value="sync" style="edgeLabel;html=1;align=center;verticalAlign=middle;resizable=0;points=[];" parent="7edy7qQrG2I-J0OHIAib-21" vertex="1" connectable="0">
          <mxGeometry x="-0.6929" y="1" relative="1" as="geometry">
            <mxPoint as="offset" />
          </mxGeometry>
        </mxCell>
        <mxCell id="7edy7qQrG2I-J0OHIAib-8" value="YUV Buffer Pool" style="rounded=1;whiteSpace=wrap;html=1;" parent="1" vertex="1">
          <mxGeometry x="660" y="640" width="120" height="60" as="geometry" />
        </mxCell>
        <mxCell id="7edy7qQrG2I-J0OHIAib-22" style="edgeStyle=orthogonalEdgeStyle;rounded=0;orthogonalLoop=1;jettySize=auto;html=1;" parent="1" source="7edy7qQrG2I-J0OHIAib-9" edge="1">
          <mxGeometry relative="1" as="geometry">
            <mxPoint x="550" y="830" as="targetPoint" />
          </mxGeometry>
        </mxCell>
        <mxCell id="7edy7qQrG2I-J0OHIAib-31" value="sync" style="edgeLabel;html=1;align=center;verticalAlign=middle;resizable=0;points=[];" parent="7edy7qQrG2I-J0OHIAib-22" vertex="1" connectable="0">
          <mxGeometry x="-0.6759" relative="1" as="geometry">
            <mxPoint as="offset" />
          </mxGeometry>
        </mxCell>
        <mxCell id="7edy7qQrG2I-J0OHIAib-9" value="Label Buffer" style="rounded=1;whiteSpace=wrap;html=1;" parent="1" vertex="1">
          <mxGeometry x="300" y="640" width="120" height="60" as="geometry" />
        </mxCell>
        <mxCell id="7edy7qQrG2I-J0OHIAib-10" value="Canvas" style="rounded=1;whiteSpace=wrap;html=1;" parent="1" vertex="1">
          <mxGeometry x="490" y="840" width="120" height="60" as="geometry" />
        </mxCell>
        <mxCell id="7edy7qQrG2I-J0OHIAib-23" style="edgeStyle=orthogonalEdgeStyle;rounded=0;orthogonalLoop=1;jettySize=auto;html=1;entryX=0;entryY=0.5;entryDx=0;entryDy=0;" parent="1" source="7edy7qQrG2I-J0OHIAib-11" target="7edy7qQrG2I-J0OHIAib-9" edge="1">
          <mxGeometry relative="1" as="geometry" />
        </mxCell>
        <mxCell id="7edy7qQrG2I-J0OHIAib-11" value="Algorithm Server" style="shape=parallelogram;perimeter=parallelogramPerimeter;whiteSpace=wrap;html=1;" parent="1" vertex="1">
          <mxGeometry x="40" y="640" width="140" height="60" as="geometry" />
        </mxCell>
        <mxCell id="Ix77uF7OWWoRivOxIdmu-39" style="edgeStyle=orthogonalEdgeStyle;rounded=0;orthogonalLoop=1;jettySize=auto;html=1;entryX=0.5;entryY=0;entryDx=0;entryDy=0;" parent="1" source="Ix77uF7OWWoRivOxIdmu-2" target="Ix77uF7OWWoRivOxIdmu-38" edge="1">
          <mxGeometry relative="1" as="geometry" />
        </mxCell>
        <mxCell id="Ix77uF7OWWoRivOxIdmu-2" value="start" style="rounded=1;whiteSpace=wrap;html=1;" parent="1" vertex="1">
          <mxGeometry x="1290" y="20" width="120" height="50" as="geometry" />
        </mxCell>
        <mxCell id="Ix77uF7OWWoRivOxIdmu-67" style="edgeStyle=orthogonalEdgeStyle;rounded=0;orthogonalLoop=1;jettySize=auto;html=1;" parent="1" source="Ix77uF7OWWoRivOxIdmu-13" target="Ix77uF7OWWoRivOxIdmu-18" edge="1">
          <mxGeometry relative="1" as="geometry" />
        </mxCell>
        <mxCell id="Ix77uF7OWWoRivOxIdmu-13" value="WebSocket Worker" style="rounded=0;whiteSpace=wrap;html=1;" parent="1" vertex="1">
          <mxGeometry x="1074" y="290" width="120" height="60" as="geometry" />
        </mxCell>
        <mxCell id="Ix77uF7OWWoRivOxIdmu-62" style="edgeStyle=orthogonalEdgeStyle;rounded=0;orthogonalLoop=1;jettySize=auto;html=1;entryX=0.5;entryY=0;entryDx=0;entryDy=0;" parent="1" source="Ix77uF7OWWoRivOxIdmu-14" target="Ix77uF7OWWoRivOxIdmu-43" edge="1">
          <mxGeometry relative="1" as="geometry" />
        </mxCell>
        <mxCell id="Ix77uF7OWWoRivOxIdmu-14" value="FFMPEG Decode Module" style="rounded=0;whiteSpace=wrap;html=1;" parent="1" vertex="1">
          <mxGeometry x="1290" y="290" width="120" height="60" as="geometry" />
        </mxCell>
        <mxCell id="Ix77uF7OWWoRivOxIdmu-54" style="edgeStyle=orthogonalEdgeStyle;rounded=0;orthogonalLoop=1;jettySize=auto;html=1;entryX=0.5;entryY=0;entryDx=0;entryDy=0;" parent="1" source="Ix77uF7OWWoRivOxIdmu-15" target="Ix77uF7OWWoRivOxIdmu-24" edge="1">
          <mxGeometry relative="1" as="geometry" />
        </mxCell>
        <mxCell id="Ix77uF7OWWoRivOxIdmu-15" value="Main Worker" style="rounded=0;whiteSpace=wrap;html=1;" parent="1" vertex="1">
          <mxGeometry x="1504" y="290" width="120" height="60" as="geometry" />
        </mxCell>
        <mxCell id="Ix77uF7OWWoRivOxIdmu-68" style="edgeStyle=orthogonalEdgeStyle;rounded=0;orthogonalLoop=1;jettySize=auto;html=1;entryX=0.5;entryY=0;entryDx=0;entryDy=0;entryPerimeter=0;" parent="1" source="Ix77uF7OWWoRivOxIdmu-18" target="Ix77uF7OWWoRivOxIdmu-19" edge="1">
          <mxGeometry relative="1" as="geometry" />
        </mxCell>
        <mxCell id="Ix77uF7OWWoRivOxIdmu-18" value="Wait For WebSocket Data" style="rounded=0;whiteSpace=wrap;html=1;" parent="1" vertex="1">
          <mxGeometry x="1076" y="430" width="116" height="60" as="geometry" />
        </mxCell>
        <mxCell id="Ix77uF7OWWoRivOxIdmu-51" style="edgeStyle=orthogonalEdgeStyle;rounded=0;orthogonalLoop=1;jettySize=auto;html=1;" parent="1" source="Ix77uF7OWWoRivOxIdmu-19" edge="1">
          <mxGeometry relative="1" as="geometry">
            <mxPoint x="1040" y="460" as="targetPoint" />
          </mxGeometry>
        </mxCell>
        <mxCell id="Ix77uF7OWWoRivOxIdmu-53" value="No" style="edgeLabel;html=1;align=center;verticalAlign=middle;resizable=0;points=[];" parent="Ix77uF7OWWoRivOxIdmu-51" vertex="1" connectable="0">
          <mxGeometry x="0.4" y="1" relative="1" as="geometry">
            <mxPoint as="offset" />
          </mxGeometry>
        </mxCell>
        <mxCell id="kKd2w7GIL7ODUJjJ7BrG-3" style="edgeStyle=orthogonalEdgeStyle;rounded=0;orthogonalLoop=1;jettySize=auto;html=1;entryX=0;entryY=0.5;entryDx=0;entryDy=0;" edge="1" parent="1" source="Ix77uF7OWWoRivOxIdmu-19" target="Ix77uF7OWWoRivOxIdmu-22">
          <mxGeometry relative="1" as="geometry" />
        </mxCell>
        <mxCell id="Ix77uF7OWWoRivOxIdmu-19" value="Has Data" style="strokeWidth=2;html=1;shape=mxgraph.flowchart.decision;whiteSpace=wrap;" parent="1" vertex="1">
          <mxGeometry x="1084" y="580" width="100" height="90" as="geometry" />
        </mxCell>
        <mxCell id="Ix77uF7OWWoRivOxIdmu-64" style="edgeStyle=orthogonalEdgeStyle;rounded=0;orthogonalLoop=1;jettySize=auto;html=1;entryX=0;entryY=0.5;entryDx=0;entryDy=0;" parent="1" source="Ix77uF7OWWoRivOxIdmu-43" target="Ix77uF7OWWoRivOxIdmu-24" edge="1">
          <mxGeometry relative="1" as="geometry" />
        </mxCell>
        <mxCell id="kKd2w7GIL7ODUJjJ7BrG-4" style="edgeStyle=orthogonalEdgeStyle;rounded=0;orthogonalLoop=1;jettySize=auto;html=1;" edge="1" parent="1" source="Ix77uF7OWWoRivOxIdmu-22" target="Ix77uF7OWWoRivOxIdmu-43">
          <mxGeometry relative="1" as="geometry" />
        </mxCell>
        <mxCell id="Ix77uF7OWWoRivOxIdmu-22" value="Shared Array Buffer" style="shape=internalStorage;whiteSpace=wrap;html=1;dx=15;dy=15;rounded=1;arcSize=8;strokeWidth=2;" parent="1" vertex="1">
          <mxGeometry x="1275" y="590" width="150" height="70" as="geometry" />
        </mxCell>
        <mxCell id="Ix77uF7OWWoRivOxIdmu-48" style="edgeStyle=orthogonalEdgeStyle;rounded=0;orthogonalLoop=1;jettySize=auto;html=1;" parent="1" source="Ix77uF7OWWoRivOxIdmu-23" edge="1">
          <mxGeometry relative="1" as="geometry">
            <mxPoint x="1070" y="460" as="targetPoint" />
          </mxGeometry>
        </mxCell>
        <mxCell id="Ix77uF7OWWoRivOxIdmu-23" value="Video Data" style="strokeWidth=2;html=1;shape=mxgraph.flowchart.stored_data;whiteSpace=wrap;" parent="1" vertex="1">
          <mxGeometry x="900" y="430" width="100" height="60" as="geometry" />
        </mxCell>
        <mxCell id="Ix77uF7OWWoRivOxIdmu-56" style="edgeStyle=orthogonalEdgeStyle;rounded=0;orthogonalLoop=1;jettySize=auto;html=1;" parent="1" source="Ix77uF7OWWoRivOxIdmu-24" target="Ix77uF7OWWoRivOxIdmu-25" edge="1">
          <mxGeometry relative="1" as="geometry" />
        </mxCell>
        <mxCell id="Ix77uF7OWWoRivOxIdmu-24" value="Meta Data" style="rounded=0;whiteSpace=wrap;html=1;" parent="1" vertex="1">
          <mxGeometry x="1504" y="580" width="120" height="60" as="geometry" />
        </mxCell>
        <mxCell id="Ix77uF7OWWoRivOxIdmu-57" style="edgeStyle=orthogonalEdgeStyle;rounded=0;orthogonalLoop=1;jettySize=auto;html=1;entryX=0.5;entryY=0;entryDx=0;entryDy=0;" parent="1" source="Ix77uF7OWWoRivOxIdmu-25" target="Ix77uF7OWWoRivOxIdmu-55" edge="1">
          <mxGeometry relative="1" as="geometry" />
        </mxCell>
        <mxCell id="Ix77uF7OWWoRivOxIdmu-25" value="video YUV" style="strokeWidth=2;html=1;shape=mxgraph.flowchart.decision;whiteSpace=wrap;" parent="1" vertex="1">
          <mxGeometry x="1514" y="700" width="100" height="80" as="geometry" />
        </mxCell>
        <mxCell id="Ix77uF7OWWoRivOxIdmu-32" value="webgl and canvas" style="strokeWidth=2;html=1;shape=mxgraph.flowchart.display;whiteSpace=wrap;" parent="1" vertex="1">
          <mxGeometry x="1484" y="990" width="140" height="90" as="geometry" />
        </mxCell>
        <mxCell id="Ix77uF7OWWoRivOxIdmu-41" style="edgeStyle=orthogonalEdgeStyle;rounded=0;orthogonalLoop=1;jettySize=auto;html=1;entryX=0.5;entryY=0;entryDx=0;entryDy=0;" parent="1" source="Ix77uF7OWWoRivOxIdmu-38" target="Ix77uF7OWWoRivOxIdmu-15" edge="1">
          <mxGeometry relative="1" as="geometry" />
        </mxCell>
        <mxCell id="Ix77uF7OWWoRivOxIdmu-42" style="edgeStyle=orthogonalEdgeStyle;rounded=0;orthogonalLoop=1;jettySize=auto;html=1;entryX=0.5;entryY=0;entryDx=0;entryDy=0;" parent="1" source="Ix77uF7OWWoRivOxIdmu-38" target="Ix77uF7OWWoRivOxIdmu-13" edge="1">
          <mxGeometry relative="1" as="geometry" />
        </mxCell>
        <mxCell id="Ix77uF7OWWoRivOxIdmu-63" style="edgeStyle=orthogonalEdgeStyle;rounded=0;orthogonalLoop=1;jettySize=auto;html=1;entryX=0.5;entryY=0;entryDx=0;entryDy=0;" parent="1" source="Ix77uF7OWWoRivOxIdmu-38" target="Ix77uF7OWWoRivOxIdmu-14" edge="1">
          <mxGeometry relative="1" as="geometry" />
        </mxCell>
        <mxCell id="Ix77uF7OWWoRivOxIdmu-38" value="Main Thread" style="rounded=0;whiteSpace=wrap;html=1;" parent="1" vertex="1">
          <mxGeometry x="1070" y="150" width="560" height="70" as="geometry" />
        </mxCell>
        <mxCell id="Ix77uF7OWWoRivOxIdmu-59" style="edgeStyle=orthogonalEdgeStyle;rounded=0;orthogonalLoop=1;jettySize=auto;html=1;entryX=0.574;entryY=0.016;entryDx=0;entryDy=0;entryPerimeter=0;" parent="1" source="Ix77uF7OWWoRivOxIdmu-55" target="Ix77uF7OWWoRivOxIdmu-32" edge="1">
          <mxGeometry relative="1" as="geometry" />
        </mxCell>
        <mxCell id="Ix77uF7OWWoRivOxIdmu-55" value="YUV render Worker" style="rounded=0;whiteSpace=wrap;html=1;" parent="1" vertex="1">
          <mxGeometry x="1504" y="860" width="120" height="60" as="geometry" />
        </mxCell>
        <mxCell id="Ix77uF7OWWoRivOxIdmu-43" value="Decoder Worker" style="rounded=0;whiteSpace=wrap;html=1;" parent="1" vertex="1">
          <mxGeometry x="1290" y="430" width="120" height="60" as="geometry" />
        </mxCell>
      </root>
    </mxGraphModel>
  </diagram>
</mxfile>
